<?xml version="1.0" encoding="utf-8"?>
<!-- Generator: Adobe Illustrator 25.0.1, SVG Export Plug-In . SVG Version: 6.00 Build 0)  -->
<svg version="1.1" id="Laag_1" xmlns="http://www.w3.org/2000/svg" xmlns:xlink="http://www.w3.org/1999/xlink" x="0px" y="0px"
	 viewBox="0 0 489.1 490" style="enable-background:new 0 0 489.1 490; fill: #fff" xml:space="preserve">
<g>
	<path d="M473.5,391.6L370.9,289.3c13.9-27.8,23.2-60.2,23.2-92.6C394.1,88,306,0,197.1,0C88.1,0,0,88,0,196.7
		c0,108.8,88.1,196.8,197.1,196.8c32.5,0,64.9-9.3,92.7-23.1l102.5,102.3c23.2,23.1,58,23.1,81.1,0
		C494.3,449.5,494.3,414.8,473.5,391.6z M197.1,347.2c-83.5,0-150.7-67.1-150.7-150.4S113.6,46.4,197.1,46.4s150.7,67.1,150.7,150.4
		C347.8,280,280.5,347.2,197.1,347.2z"/>
</g>
</svg>
